<svg width="131" height="12" viewBox="0 0 131 12" fill="none" xmlns="http://www.w3.org/2000/svg">
<path d="M0.190851 12V0.0952382H9.71466V2.47619H4.95276V4.85714H9.71466V7.2381H4.95276V12H0.190851ZM23.6587 2.47619H26.0396V12H21.2777V7.2381H18.8968V12H14.1349V2.47619H16.5158V0.0952382H23.6587V2.47619ZM18.8968 4.85714H21.2777V2.47619H18.8968V4.85714ZM35.2236 12V9.61905H32.8426V4.85714H30.4617V0.0952382H35.2236V4.85714H39.9855V0.0952382H44.7474V4.85714H42.3664V9.61905H39.9855V12H35.2236ZM51.5523 12V9.61905H49.1713V2.47619H51.5523V0.0952382H58.6951V2.47619H61.0761V9.61905H58.6951V12H51.5523ZM53.9332 9.61905H56.3142V2.47619H53.9332V9.61905ZM65.4981 12V0.0952382H75.0219V2.47619H77.4029V4.85714H75.0219V9.61905H77.4029V12H72.641V9.61905H70.26V12H65.4981ZM70.26 4.85714H72.641V2.47619H70.26V4.85714ZM81.825 12V0.0952382H86.5869V12H81.825ZM93.4038 12V2.47619H91.0229V0.0952382H100.547V2.47619H98.1657V12H93.4038ZM114.491 2.47619H109.729V4.85714H114.491V7.2381H109.729V9.61905H114.491V12H104.967V0.0952382H114.491V2.47619ZM118.911 12V9.61905H126.054V7.2381H121.292V4.85714H118.911V2.47619H121.292V0.0952382H130.816V2.47619H123.673V4.85714H128.435V7.2381H130.816V9.61905H128.435V12H118.911Z" fill="#60265B"/>
</svg>
