<svg width="75" height="12" viewBox="0 0 75 12" fill="none" xmlns="http://www.w3.org/2000/svg">
<path d="M0.088636 12V0.0952382H9.61245V2.47619H11.9934V4.85714H9.61245V7.2381H4.85054V12H0.088636ZM4.85054 4.85714H7.23149V2.47619H4.85054V4.85714ZM18.7964 12V9.61905H16.4155V2.47619H18.7964V0.0952382H25.9393V2.47619H28.3202V9.61905H25.9393V12H18.7964ZM21.1774 9.61905H23.5583V2.47619H21.1774V9.61905ZM32.7423 12V9.61905H39.8851V7.2381H35.1232V4.85714H32.7423V2.47619H35.1232V0.0952382H44.647V2.47619H37.5042V4.85714H42.2661V7.2381H44.647V9.61905H42.2661V12H32.7423ZM51.4501 12V2.47619H49.0691V0.0952382H58.5929V2.47619H56.212V12H51.4501ZM63.0131 12V9.61905H70.156V7.2381H65.3941V4.85714H63.0131V2.47619H65.3941V0.0952382H74.9179V2.47619H67.775V4.85714H72.5369V7.2381H74.9179V9.61905H72.5369V12H63.0131Z" fill="#60265B"/>
</svg>
